# xmcd CD database file
# Copyright (C) 1995-1998 Ti Kan
#
# Track frame offsets:
#	150
#	17765
#	35478
#	51881
#	72427
#	90150
#	106705
#	118706
#	132224
#	145712
#	157572
#	167808
#	179551
#	186269
#	194439
#	209727
#	222258
#	236431
#
# Disc length: 3333 seconds
#
# Revision: 4
# Processed by: cddbd v1.4PL0 Copyright (c) Steve Scherf et al.
# Submitted via: CDex 1.30FinalFR
#
DISCID=fa0d0312
DTITLE=Lightnin' Hopkins - Morning Blues - Charly Blues Masterworks Vol.8
DYEAR=1992
DGENRE=Blues
TTITLE0=Found My Baby Crying
TTITLE1=Letter To My (Back Door Friend)
TTITLE2=Fishing Clothes
TTITLE3=Morning Blues
TTITLE4=Gamblers Blues
TTITLE5=Wig Wearing Woman
TTITLE6=Lonesome Dog Blues
TTITLE7=Last Affair
TTITLE8=Lovin' Arms
TTITLE9=Rock Me Mama
TTITLE10=Mr. Charlie Pt.1
TTITLE11=Mr. Charlie Pt.2
TTITLE12=Play With Your Poodle
TTITLE13=You're Too Fast
TTITLE14=Love Me This Morning
TTITLE15=I'm Comin' Home
TTITLE16=Ride In Your New Automobile
TTITLE17=Breakfast Time
EXTD=YEAR: 1992 ID3G:   0
EXTT0=
EXTT1=
EXTT2=
EXTT3=
EXTT4=
EXTT5=
EXTT6=
EXTT7=
EXTT8=
EXTT9=
EXTT10=
EXTT11=
EXTT12=
EXTT13=
EXTT14=
EXTT15=
EXTT16=
EXTT17=
PLAYORDER=
